<?xml version="1.0" encoding="UTF-8" standalone="no"?>
<!-- Created with Inkscape (http://www.inkscape.org/) -->

<svg
   xmlns:dc="http://purl.org/dc/elements/1.1/"
   xmlns:cc="http://creativecommons.org/ns#"
   xmlns:rdf="http://www.w3.org/1999/02/22-rdf-syntax-ns#"
   xmlns:svg="http://www.w3.org/2000/svg"
   xmlns="http://www.w3.org/2000/svg"
   xmlns:sodipodi="http://sodipodi.sourceforge.net/DTD/sodipodi-0.dtd"
   xmlns:inkscape="http://www.inkscape.org/namespaces/inkscape"
   width="297mm"
   height="210mm"
   viewBox="0 0 1052.3622 744.09448"
   id="svg2"
   version="1.1"
   inkscape:version="0.91 r13725"
   sodipodi:docname="gravure-full-metal-alchimist-chibi-ed-surprise-3.svg">
  <title
     id="title3349">Chibi Ed Surprise</title>
  <defs
     id="defs4" />
  <sodipodi:namedview
     id="base"
     pagecolor="#ffffff"
     bordercolor="#666666"
     borderopacity="1.0"
     inkscape:pageopacity="0.0"
     inkscape:pageshadow="2"
     inkscape:zoom="0.35"
     inkscape:cx="536.85702"
     inkscape:cy="60"
     inkscape:document-units="px"
     inkscape:current-layer="layer1"
     showgrid="false"
     inkscape:window-width="1536"
     inkscape:window-height="877"
     inkscape:window-x="-8"
     inkscape:window-y="-8"
     inkscape:window-maximized="1" />
  <metadata
     id="metadata7">
    <rdf:RDF>
      <cc:Work
         rdf:about="">
        <dc:format>image/svg+xml</dc:format>
        <dc:type
           rdf:resource="http://purl.org/dc/dcmitype/StillImage" />
        <dc:title>Chibi Ed Surprise</dc:title>
      </cc:Work>
    </rdf:RDF>
  </metadata>
  <g
     inkscape:label="Calque 1"
     inkscape:groupmode="layer"
     id="layer1"
     transform="translate(0,-308.26772)">
    <path
       style="fill:#000000"
       d="m 627.55344,1025.9176 c -142.24306,-0.252 -258.70626,-0.507 -258.80709,-0.5668 -0.10081,-0.06 -0.7693,-2.7734 -1.48547,-6.0304 -0.95787,-4.3563 -1.12167,-7.5735 -0.61957,-12.1692 l 0.68257,-6.2472 7.29046,-8.15097 c 4.00975,-4.48303 7.88766,-8.56076 8.61758,-9.06163 0.7299,-0.50087 27.81188,-9.58462 60.18215,-20.1861 l 58.85505,-19.27548 16.24548,-2.74814 16.24546,-2.74814 -9.19279,-10.49957 -9.1928,-10.49962 -3.34342,-10.18684 c -1.83889,-5.60277 -3.28135,-10.22396 -3.20545,-10.26929 0.0758,-0.0454 11.63291,-1.82814 25.68225,-3.96174 27.87265,-4.23286 25.49645,-3.62957 42.17659,-10.70803 l 3.27684,-1.39054 -10.24376,-0.29974 c -42.08218,-1.2314 -59.85303,-2.33123 -84.2673,-5.21531 -77.54588,-9.16055 -131.86125,-30.71738 -156.61993,-62.15975 -7.01541,-8.90924 -9.68908,-14.93785 -13.26035,-29.89958 -2.15216,-9.01638 -1.86314,-8.72581 -6.43119,-6.46569 -2.0828,1.03051 -4.07476,1.68846 -4.42653,1.46212 -0.35178,-0.22634 -5.99957,-5.98135 -12.55064,-12.7889 -6.55107,-6.80756 -12.43565,-12.69455 -13.07682,-13.08219 -0.98363,-0.5947 -1.2991,-0.55441 -2.01901,0.25786 -0.68668,0.7748 1.69532,3.80517 12.20547,15.52765 l 13.05866,14.56498 -5.03125,6.96649 c -2.76719,3.83157 -5.27826,6.9665 -5.58014,6.9665 -0.30188,0 -6.11581,-3.32507 -12.91983,-7.38903 -11.32969,-6.76709 -12.37096,-7.54589 -12.37096,-9.2526 0,-2.4446 -1.17666,-2.80561 -2.40082,-0.7366 -3.21098,5.42701 -16.66976,41.91544 -25.90802,70.23992 l -10.7653,33.00632 -3.56984,24.23902 -3.56983,24.23902 0.95906,12.06928 c 0.9317,11.72503 0.90203,12.23626 -1.04017,17.92141 -1.09958,3.21867 -2.20619,5.85212 -2.45914,5.85212 -0.25293,0 -5.13701,-1.91463 -10.8535,-4.25473 l -10.39364,-4.25472 -27.85566,-26.04405 -27.85566,-26.04406 -10.77997,-22.17612 c -9.55991,-19.66624 -11.40529,-24.13309 -16.30493,-39.4668 l -5.52495,-17.29072 -0.6473,-18.27388 c -0.35603,-10.05064 -0.90742,-18.84985 -1.22534,-19.55379 -0.37036,-0.82009 -2.52205,5.6572 -5.98937,18.02997 -4.959668,17.69799 -5.627983,21.04669 -8.006296,40.11598 -1.427201,11.44335 -2.594914,21.48062 -2.594914,22.30506 0,1.36285 -0.27064,1.49895 -2.981204,1.49895 -14.722943,0 -22.962813,-23.69879 -23.220985,-66.78623 -0.04245,-7.0912 -0.53258,-16.23321 -1.089091,-20.31558 l -1.011829,-7.42248 -3.501703,-0.61088 c -4.922868,-0.85881 -7.96859,-2.15938 -10.78857,-4.6069 -6.144146,-5.33262 -8.780388,-13.32142 -8.781162,-26.61026 -7.73e-4,-13.33128 3.190797,-30.62065 8.282515,-44.86798 1.165768,-3.26195 3.70967,-11.73272 5.653114,-18.82392 3.350152,-12.22394 4.327505,-14.55079 18.831262,-44.83303 l 15.297703,-31.93995 -0.761848,-3.90286 c -0.746705,-3.82522 -0.677014,-4.05674 3.503295,-11.63872 3.557754,-6.45281 4.809583,-8.078 7.547702,-9.79875 2.819201,-1.7717 3.840871,-3.15488 7.237821,-9.79875 2.17539,-4.25473 6.96093,-12.02926 10.63454,-17.27676 3.67359,-5.24748 9.1445,-13.71825 12.15756,-18.82391 19.95258,-33.80981 20.15001,-34.09934 27.44481,-40.24829 3.71581,-3.13214 7.97592,-7.43014 9.46692,-9.5511 12.89786,-18.34749 38.73887,-32.66546 70.11667,-38.85021 14.1245,-2.78401 23.04811,-3.5623 41.45671,-3.61571 9.34002,-0.027 20.28279,0.0668 24.31724,0.2086 l 7.33538,0.25787 1.55533,-3.07249 c 0.85543,-1.68986 1.4734,-3.11577 1.37327,-3.16869 -0.10014,-0.053 -6.64822,-0.44991 -14.55132,-0.88222 -14.59187,-0.79818 -21.50671,-0.66106 -33.96374,0.67353 -37.62103,4.03049 -120.34852,20.60128 -213.94838,42.85505 -13.01541,3.09447 -23.884625,5.62631 -24.153795,5.62631 -1.64149,0 9.486206,-13.46683 16.899059,-20.45138 27.783948,-26.1786 68.201566,-44.239 115.166606,-51.46158 20.55281,-3.16074 27.8628,-3.64391 54.65548,-3.61256 28.49623,0.0333 36.5957,0.64238 72.27515,5.43486 21.78787,2.92656 24.06384,3.34664 40.91391,7.55169 l 17.84264,4.45273 13.3593,-4.09214 c 7.34762,-2.25067 13.55796,-4.27331 13.80076,-4.49473 0.24279,-0.22144 1.19556,-4.74436 2.11729,-10.05096 1.66995,-9.61456 1.70482,-9.70307 9.96257,-25.28438 10.83416,-20.44271 15.61029,-26.07193 28.42522,-33.50246 18.22677,-10.56849 41.7925,-15.03257 76.06104,-14.40834 21.08734,0.38414 36.29309,1.89931 60.56533,6.035 25.16308,4.28749 77.88912,17.1858 117.09111,28.64385 46.43241,13.57139 80.55934,26.85748 101.83224,39.64473 4.75734,2.85965 16.57979,9.37673 26.27213,14.4824 15.97449,8.41493 20.3234,11.11282 46.50545,28.85019 21.90582,14.84042 29.59225,20.40131 31.81931,23.0202 2.26425,2.66263 3.54329,3.5783 5.58773,4.00036 2.0576,0.42478 2.65136,0.85428 2.65136,1.91797 0,0.75384 1.0014,2.07541 2.2254,2.93683 1.22399,0.86141 3.1446,2.63548 4.26811,3.94237 1.1235,1.3069 3.10794,2.95636 4.40989,3.66549 8.4109,4.58122 53.98605,50.52617 85.82626,86.52265 l 5.59696,6.32761 -6.76061,3.92811 -6.76052,3.9281 -14.69838,-12.57647 -14.69846,-12.57646 -21.86655,-12.27971 c -12.02655,-6.75383 -21.86654,-12.16723 -21.86654,-12.02978 0,0.13746 10.40031,16.3388 23.1118,36.003 l 23.11189,35.75307 6.80963,27.0755 6.80964,27.0755 -1.92295,34.03777 -1.92296,34.03778 -6.61928,7.80743 c -3.64064,4.29408 -11.31296,13.152 -17.0497,19.68425 l -10.43043,11.87682 2.85016,6.87552 2.85017,6.87553 21.84303,9.02517 c 12.01358,4.96384 22.08915,9.17339 22.39012,9.35454 0.47583,0.28649 6.54672,18.85143 6.54672,20.02005 0,0.2408 6.82758,3.74983 15.1723,7.7979 l 15.17229,7.36016 0.4809,2.87521 c 0.2645,1.58136 0.7338,8.13626 1.0429,14.56646 l 0.5621,11.69131 18.9166,7.46619 18.9166,7.46613 0.5697,5.85517 c 0.3132,3.22033 0.5714,34.57453 0.5736,69.67598 l 0,63.82078 -78.59554,-0.087 c -43.22756,-0.048 -194.97626,-0.2929 -337.21933,-0.5449 z m 18.6823,-27.95586 -1.10995,-22.44012 3.60129,-3.23767 3.60129,-3.23771 -2.8195,-0.16163 c -2.08707,-0.11965 -4.24926,-0.99045 -8.32338,-3.3522 -5.17482,-2.99982 -6.23425,-4.06932 -17.7208,-17.88871 l -12.21692,-14.69813 -1.74723,-18.82392 c -0.96097,-10.35315 -1.82936,-18.87756 -1.92976,-18.94311 -0.16099,-0.10514 -84.22726,16.36181 -84.75122,16.60105 -0.11384,0.052 4.70764,6.31865 10.71439,13.92589 6.00677,7.60724 10.74854,14.09804 10.5373,14.42407 -0.21125,0.32599 -16.59346,5.20721 -36.40491,10.84717 -20.02677,5.70128 -55.7435,16.53225 -80.43901,24.39296 l -44.41819,14.13847 -4.19957,10.91375 c -4.11052,10.6822 -4.17728,10.9919 -3.14815,14.6021 0.57828,2.0286 1.35783,3.982 1.73232,4.3408 0.54899,0.5261 18.53915,0.5275 92.85131,0.01 50.69373,-0.3547 106.45462,-0.9303 123.91308,-1.2791 l 31.74266,-0.6343 10.49429,1.6443 c 5.77186,0.9043 10.64196,1.5665 10.82245,1.4714 0.18049,-0.095 -0.17132,-10.2708 -0.78179,-22.61284 z m 45.67776,22.39906 6.18979,0 -1.86188,-13.0221 c -1.81133,-12.66857 -1.66218,-15.96632 0.53865,-11.90912 0.59115,1.08983 2.0369,3.2041 3.21277,4.69842 l 2.13794,2.7169 4.2986,-1.3855 c 2.36423,-0.762 4.63202,-1.63652 5.03953,-1.94332 0.40752,-0.3068 0.94704,-4.15503 1.19893,-8.55158 l 0.458,-7.99372 -10.69378,-5.77477 -10.69378,-5.77476 -0.63557,-6.76691 c -0.62792,-6.68549 -0.6632,-6.77337 -2.93,-7.29961 -1.31176,-0.30453 -5.09172,-0.40505 -8.8259,-0.23466 -6.57724,0.30015 -22.41609,2.56063 -23.8367,3.40193 -0.42047,0.24898 -0.49737,1.92989 -0.17087,3.73534 l 0.59361,3.28263 14.5373,2.50358 c 7.9955,1.37698 14.85825,2.67181 15.25056,2.87743 0.39229,0.20562 -6.94928,0.47781 -16.31462,0.60494 -9.36534,0.12707 -17.18336,0.33156 -17.37339,0.4543 -0.19003,0.1228 -0.79024,9.50629 -1.33381,20.85221 -0.54358,11.34597 -1.18901,21.88447 -1.43431,23.41897 l -0.44599,2.79 18.45256,-0.3403 c 10.14889,-0.1872 21.23796,-0.3403 24.64236,-0.3403 z m 127.64255,-1.1349 c 37.59959,0.033 101.11944,0.218 141.15519,0.4105 l 72.79226,0.3502 0.5711,-17.4764 c 0.314,-9.6121 0.8337,-38.72981 1.1548,-64.70604 l 0.5839,-47.22953 -15.474,-6.56583 c -8.5108,-3.61121 -15.5572,-6.49379 -15.6588,-6.40576 -2.3139,2.00597 -15.58882,11.76758 -16.01554,11.77687 -0.32814,0.008 -6.52096,-1.67544 -13.76185,-3.739 l -13.16529,-3.75199 -1.14946,-6.37745 c -0.63225,-3.50759 -1.61198,-6.64062 -2.17725,-6.96227 -0.56528,-0.32165 -6.14909,-2.67351 -12.40861,-5.22635 l -11.3808,-4.64151 -19.37335,-17.14782 c -10.65539,-9.4313 -19.49841,-17.14781 -19.65116,-17.14781 -0.68641,0 -53.21202,24.70642 -62.89343,29.5831 l -10.80099,5.44063 -21.42097,5.59561 c -11.78153,3.07758 -35.22517,9.17982 -52.09698,13.56049 -16.87179,4.38071 -30.68589,8.14276 -30.69799,8.36009 -0.0122,0.21738 1.7674,2.65417 3.95442,5.4151 l 3.9764,5.0199 3.75568,16.32369 3.75568,16.32374 -4.25015,16.16685 c -2.33758,8.89181 -4.39753,16.39899 -4.57769,16.68265 -0.18013,0.28364 -6.64562,2.24592 -14.36773,4.36059 -7.72212,2.11468 -14.03189,3.97128 -14.02174,4.1258 0.01,0.15451 5.89554,2.57979 13.07864,5.38952 9.37333,3.66643 12.95312,5.34068 12.68102,5.93082 -0.20853,0.45224 -1.65741,5.20133 -3.21977,10.55351 l -2.84064,9.7314 -5.99185,2.5808 c -3.29551,1.4195 -5.81712,2.8505 -5.60356,3.18 0.21356,0.3296 1.09778,2.9999 1.96494,5.934 l 1.57668,5.3346 21.818,-0.4066 c 11.9999,-0.2237 52.5813,-0.3794 90.18089,-0.3461 z m -114.60585,-54.29808 8.40578,-3.60263 3.1063,-5.68039 c 6.10199,-11.15841 9.00212,-21.6062 9.02091,-32.49798 0.0242,-14.0266 -5.13352,-25.47531 -16.01497,-35.54885 -1.78603,-1.65341 -2.92579,-3.17933 -2.53281,-3.39093 0.39298,-0.21165 4.63339,-1.14202 9.42315,-2.06753 35.46781,-6.85336 77.56795,-17.52487 96.1606,-24.37461 8.6486,-3.1863 16.30211,-6.90735 19.31199,-9.38932 2.07963,-1.71494 5.72698,-3.29166 15.93823,-6.88996 23.58606,-8.31151 40.24997,-16.65788 43.54577,-21.81063 l 1.44024,-2.25155 -5.62997,-13.07598 c -3.09646,-7.19179 -5.75895,-13.15244 -5.91675,-13.24587 -0.15779,-0.0934 -6.35139,5.51891 -13.76358,12.47191 -7.4121,6.95299 -13.87149,12.83545 -14.35412,13.07213 -1.08014,0.52968 -109.86896,33.48377 -112.47283,34.07005 -1.31462,0.29597 -65.06491,23.24156 -68.06736,24.49941 -0.1455,0.061 1.15219,2.5158 2.88374,5.45522 13.43355,22.80433 20.63961,52.08661 17.9749,73.04201 -0.53481,4.20568 -0.72381,9.5556 -0.41999,11.88867 0.50771,3.89898 0.67376,4.18887 2.05367,3.58573 0.82572,-0.3609 5.28391,-2.27739 9.9071,-4.2589 z M 653.37661,963.889 c -0.41982,-5.41917 -1.38584,-8.68329 -8.39451,-28.3648 l -6.42782,-18.05034 -0.5882,-19.33964 c -0.3235,-10.63681 -0.71631,-19.41851 -0.8729,-19.51484 -0.1566,-0.0964 -16.87722,2.63056 -37.15693,6.05976 -20.27972,3.4292 -37.65098,6.23484 -38.6028,6.23473 -1.34817,-1.5e-4 -41.16202,7.06109 -41.98597,7.44649 -0.36049,0.16859 2.22426,11.71946 2.6833,11.9913 0.24919,0.1476 19.94848,-3.58093 43.77618,-8.28551 23.82771,-4.70465 43.39344,-8.50027 43.4794,-8.43472 0.086,0.0655 0.92322,8.74095 1.86057,19.27868 l 1.70427,19.15956 11.69389,14.21716 c 10.33483,12.56484 12.33967,14.64181 17.25034,17.87076 5.15407,3.38903 5.78469,3.6423 8.70865,3.49753 l 3.15221,-0.15605 -0.27968,-3.61007 z m -439.51427,-7.86479 c -0.25475,-1.06368 -1.45061,-7.83591 -2.65749,-15.04933 l -2.1943,-13.11538 1.39203,-14.73371 c 1.10101,-11.6534 2.01556,-16.89011 4.37446,-25.04819 1.64033,-5.67296 7.4934,-26.09563 13.00682,-45.3837 l 10.02438,-35.06922 9.58454,-16.41255 9.58453,-16.41255 0,-5.40508 0,-5.40508 -3.63717,-3.19497 c -2.00044,-1.75723 -7.61603,-6.56007 -12.47906,-10.67297 l -8.84188,-7.478 -8.53256,-13.92454 c -4.6929,-7.6585 -14.01699,-22.74342 -20.72019,-33.52205 l -12.18764,-19.5975 -0.34664,-14.44027 c -0.33314,-13.87755 -0.52179,-15.21535 -4.84107,-34.33029 l -4.49445,-19.89002 4.99894,-22.65719 c 2.74942,-12.46146 5.21024,-23.39537 5.4685,-24.29758 0.38072,-1.33003 1.13301,-1.7976 3.97612,-2.47127 1.92861,-0.45699 3.73019,-0.69845 4.0035,-0.5366 0.27333,0.16186 -1.929,11.62011 -4.89405,25.46276 l -5.391,25.16847 6.16842,32.19096 6.16843,32.19096 19.05074,31.40332 19.05076,31.40332 12.57876,13.72251 c 12.48058,13.61542 12.58763,13.7604 13.71624,18.57568 0.70282,2.99863 1.66906,5.16642 2.52855,5.67296 0.76509,0.45089 3.05996,2.5744 5.09972,4.71891 2.03975,2.1445 5.63572,5.42295 7.99102,7.28545 8.19248,6.47831 11.43001,6.41504 11.98707,-0.23427 l 0.31251,-3.73015 -7.32644,-6.48981 c -8.94357,-7.92225 -12.13629,-12.59595 -11.92593,-17.45789 0.0806,-1.86212 -0.31397,-3.96974 -0.87679,-4.6836 -0.82067,-1.04093 -0.66906,-2.46287 0.76568,-7.18139 0.98392,-3.23591 1.78894,-6.44625 1.78894,-7.13409 0,-0.68785 -2.25336,-3.60623 -5.00747,-6.48529 l -5.00747,-5.23465 -0.243,6.83333 c -0.37667,10.59266 -0.87788,10.01316 -9.70139,-11.21699 l -5.25136,-12.63524 -2.94551,-21.0599 -2.94552,-21.05991 5.46094,-28.9653 c 4.73586,-25.11952 6.57688,-32.86831 13.86593,-58.36156 4.62275,-16.16795 9.72238,-34.38589 11.33253,-40.48432 2.84454,-10.77375 3.24655,-11.67284 14.18158,-31.71702 9.36365,-17.16377 26.67689,-46.92565 27.71498,-47.64272 0.15617,-0.10786 11.76095,1.48998 25.7884,3.55078 20.43278,3.00182 27.98132,4.36009 37.96002,6.83049 6.85055,1.69597 12.66817,2.95766 12.92803,2.80377 0.25987,-0.15388 -0.10279,-5.92426 -0.80599,-12.82305 l -1.27848,-12.54323 12.65618,-20.25765 c 6.96092,-11.14171 12.94236,-20.19266 13.29212,-20.11324 0.34975,0.0794 3.32424,2.14383 6.60996,4.58755 3.28573,2.44371 11.76075,8.31687 18.83339,13.05147 8.80108,5.89166 13.78432,9.69767 15.79029,12.06004 9.21792,10.85573 25.78437,33.15662 42.98234,57.86056 l 19.56701,28.10695 11.25812,27.33336 11.25811,27.33336 6.07273,28.84369 c 3.34001,15.86402 6.18538,28.91039 6.32305,28.99192 0.13768,0.0815 2.91394,-6.96688 6.16947,-15.66314 3.25552,-8.69625 7.02168,-17.5822 8.36925,-19.74655 l 2.4501,-3.93518 -0.46319,-14.40261 c -0.39844,-12.38955 -0.0665,-18.33112 2.37473,-42.50955 2.74946,-27.23087 2.81078,-28.66154 1.9673,-45.89943 l -0.87061,-17.79247 -8.3923,-21.06116 c -4.61576,-11.58364 -8.3923,-21.39935 -8.3923,-21.81269 0,-0.5853 0.72237,-0.67606 3.26573,-0.41027 1.79616,0.18769 3.70681,0.60434 4.24588,0.92589 0.53908,0.32153 4.17496,7.66291 8.07974,16.31418 3.90477,8.65127 7.38261,16.1106 7.72852,16.57628 0.3459,0.46569 5.52752,3.28614 11.51472,6.26766 10.64421,5.30062 11.59133,5.95451 42.67238,29.46034 l 31.78658,24.03941 24.19908,24.61753 c 15.86338,16.1377 29.64629,30.97297 40.01272,43.06782 9.31894,10.8727 16.05998,18.18013 16.4134,17.79247 0.32988,-0.3618 2.50644,-4.6031 4.83682,-9.42512 l 4.23706,-8.76731 0.22933,17.08772 0.22932,17.08773 -11.33738,29.31936 c -6.23557,16.12565 -11.23093,29.50852 -11.1008,29.7397 0.13013,0.23119 8.36871,-8.01609 18.30796,-18.32728 l 18.07137,-18.74763 5.20993,-22.31641 c 2.86546,-12.27402 5.20992,-22.4453 5.20992,-22.60284 0,-0.33296 7.71901,0.12119 8.34327,0.49088 0.2307,0.13662 -2.32924,10.63333 -5.68876,23.32601 l -6.10822,23.07761 4.77489,12.53542 4.77488,12.53541 -0.01,32.40353 -0.01,32.40353 -5.14737,24.23902 c -4.61036,21.71025 -5.61284,25.34199 -9.60908,34.81136 l -4.4617,10.57234 -10.0221,8.93489 -10.0221,8.93489 -0.52217,6.15006 c -0.28719,3.38247 -0.3,6.15 -0.0285,6.15 0.27153,0 1.75735,-1.2184 3.30184,-2.70754 1.54447,-1.48916 15.18448,-12.3387 30.31111,-24.1101 34.88513,-27.14725 41.24951,-33.00218 53.81774,-49.50948 5.29102,-6.94939 20.52097,-26.40424 33.84425,-43.23302 l 24.22416,-30.59779 3.11952,0.34501 c 1.71578,0.18975 3.16063,0.38233 3.21088,0.42793 0.0505,0.0456 2.51854,9.1339 5.48514,20.19618 2.9666,11.06227 7.19639,26.6888 9.39959,34.72562 l 4.00581,14.6124 4.97795,-10.22875 c 2.73791,-5.62581 7.24455,-13.82592 10.01495,-18.22246 l 5.0369,-7.99372 0.81078,-29.39626 0.81077,-29.39626 -4.86151,-24.49688 -4.86143,-24.49687 -26.18699,-39.45288 c -14.4029,-21.69908 -26.64821,-39.70814 -27.21183,-40.02013 -0.56363,-0.312 -3.67009,-1.23392 -6.90318,-2.04873 -3.23308,-0.8148 -5.87833,-1.63118 -5.87833,-1.81416 0,-0.183 1.61519,-1.98485 3.58935,-4.00413 l 3.58927,-3.67141 2.3104,1.15347 c 1.27078,0.6344 16.42904,8.74732 33.68506,18.0287 l 31.37465,16.87523 11.50883,11.024 c 7.35968,7.04959 12.25664,11.22574 13.58288,11.5836 1.95118,0.52648 2.09564,0.44969 2.44008,-1.29736 0.33363,-1.6925 -4.05693,-6.22239 -49.57076,-51.14378 -27.46526,-27.10774 -49.82994,-49.67605 -49.69931,-50.1518 0.14762,-0.5375 -13.29532,-9.42424 -35.50665,-23.47233 -19.65929,-12.43405 -41.07371,-26.20454 -47.58758,-30.60108 l -11.84343,-7.99372 -52.12643,-21.87077 -52.12643,-21.87078 -43.97867,-12.07918 c -46.68254,-12.82183 -61.30203,-16.18466 -86.65106,-19.93181 -27.44745,-4.05734 -43.44682,-5.24106 -64.78047,-4.79281 -14.53395,0.30539 -21.83127,0.98528 -32.32097,3.01132 -29.41032,5.68047 -48.93371,20.33498 -52.37219,39.31123 -0.51988,2.86906 -3.81559,13.10706 -7.3238,22.75109 -4.53875,12.47696 -6.94562,20.47251 -8.34449,27.72016 -1.08124,5.60204 -2.19669,10.18554 -2.47874,10.18554 -0.28207,0 -7.16223,-2.90013 -15.28927,-6.44472 l -14.77641,-6.44473 -33.09286,-6.41146 -33.09288,-6.41144 -41.80151,-2.15192 c -24.89292,-1.28147 -44.09121,-2.04147 -47.46213,-1.87887 -13.46463,0.64948 -33.86777,3.97266 -49.66291,8.08889 -36.774474,9.58348 -70.732864,27.99308 -94.459968,51.20889 -2.263249,2.21447 -3.909536,4.14798 -3.658417,4.29669 0.582144,0.34474 109.342805,-26.13977 125.574235,-30.57882 9.58153,-2.62041 15.45532,-3.8199 27.43224,-5.60197 28.41087,-4.22732 60.14895,-7.6533 83.80296,-9.04614 13.7659,-0.8106 39.7015,-0.3941 45.52048,0.73101 7.46204,1.44281 7.3552,1.01286 2.08347,8.38475 l -4.72258,6.60397 -21.32294,0.056 c -16.16994,0.0424 -23.21704,0.26927 -29.16071,0.93868 -33.23166,3.7428 -56.74334,10.64856 -78.25586,22.98502 -12.86766,7.37904 -24.077,16.60182 -31.07692,25.56936 -10.00373,12.81565 -52.86925,88.57725 -68.279782,120.67937 -14.826656,30.88584 -36.499872,81.08868 -39.255467,90.92957 -9.670509,34.53566 -9.227847,58.13437 1.19518,63.71653 2.206899,1.18194 1.527808,2.82532 6.679998,-16.16505 4.657424,-17.16674 6.430304,-22.32748 10.498322,-30.56002 4.437276,-8.97985 12.368914,-20.37327 19.281098,-27.6964 3.790016,-4.01535 4.13185,-3.73556 5.028261,4.11575 l 0.616021,5.39556 -10.860284,25.0126 -10.860295,25.01261 -1.425984,10.8302 -1.425985,10.8302 3.43178,36.87425 3.431769,36.87425 3.410956,6.1887 3.410955,6.18868 0.552034,-2.32076 c 0.303634,-1.27642 2.134102,-15.94267 4.067731,-32.59168 l 3.515663,-30.2709 15.686389,-34.16668 c 8.62751,-18.79168 15.87085,-34.27593 16.09633,-34.40945 0.51441,-0.30464 0.57315,-0.26319 3.29312,2.32384 l 2.24664,2.13684 -7.36343,18.48399 -7.36342,18.48398 2.10514,26.05218 2.10514,26.05218 12.98421,31.20129 c 7.1413,17.16071 14.06455,33.9042 15.38497,37.20772 1.86398,4.66343 3.30067,6.91199 6.42549,10.05662 2.2136,2.22762 14.69866,15.30503 27.7446,29.06098 l 23.71987,25.01085 3.76021,0.59581 c 5.92547,0.93888 6.01124,0.9196 5.49477,-1.23691 z m 447.91621,-1.95289 c 6.69412,-1.03733 16.54917,-1.44186 20.834,-0.85528 l 3.70117,0.5067 -0.0135,-4.1999 c -0.0155,-4.80655 -1.14521,-15.51127 -3.05591,-28.95464 -2.9688,-20.88805 -7.11133,-36.12264 -11.42338,-42.01071 -1.98663,-2.71271 -2.14701,-3.2735 -1.10093,-3.84972 0.67345,-0.37097 16.11624,-6.07435 34.31732,-12.67423 18.20107,-6.59986 33.55233,-12.25874 34.11389,-12.57535 1.02751,-0.57926 4.2363,-14.70091 3.59806,-15.83478 -0.1882,-0.3344 -11.49361,5.06734 -25.12313,12.00378 -24.73193,12.5868 -24.83288,12.6309 -51.0492,22.30939 l -26.26828,9.69761 0.41065,3.67454 c 0.22585,2.02101 1.14315,11.68114 2.03845,21.467 1.48536,16.2356 2.01701,19.2365 6.07584,34.29564 2.44641,9.07673 4.6657,16.92605 4.93174,17.44296 0.32137,0.62439 0.96883,0.82841 1.92906,0.60783 0.79494,-0.18262 3.53281,-0.65548 6.08415,-1.05084 z m 331.39688,-75.15854 3.36519,-3.74101 -0.56833,-13.14462 c -0.31255,-7.22952 -0.77767,-14.21087 -1.03344,-15.5141 l -0.46514,-2.3696 -16.48338,-6.60503 c -9.06579,-3.63281 -16.4833,-6.78791 -16.4833,-7.01132 0,-1.02304 -2.7022,-19.25646 -2.86462,-19.32956 -13.29627,-5.98391 -38.35237,-16.72615 -38.63,-16.56176 -0.3628,0.21487 -3.80803,16.2086 -5.28851,24.55083 -0.37516,2.11395 -1.13185,3.91496 -1.69104,4.02472 -0.69843,0.13711 -0.87626,-0.40918 -0.5739,-1.76317 0.636,-2.84824 -1.22026,-21.7721 -2.80593,-28.60428 -3.67313,-15.82692 -10.80569,-28.78636 -20.8141,-37.81811 -5.55064,-5.009 -16.71364,-11.58471 -19.70114,-11.6053 -0.27119,-0.002 -1.56529,1.33104 -2.87577,2.96202 l -2.38269,2.9654 5.95097,3.61007 c 6.83054,4.14364 12.18114,9.75892 15.00143,15.74369 2.10723,4.47162 3.34622,11.33181 2.04654,11.33181 -0.47349,0 -6.1154,-6.37937 -12.53759,-14.17637 -6.42228,-7.79701 -11.90376,-14.17909 -12.18113,-14.1824 -0.27728,-0.003 -1.41751,1.1487 -2.53379,2.56006 l -2.02955,2.56609 4.11876,2.60762 c 7.05131,4.46423 10.89295,11.08013 9.70457,16.71281 -0.54525,2.58438 -1.65612,3.90476 -2.74348,3.26084 -0.22191,-0.13141 -2.97401,-4.15796 -6.11574,-8.94788 -3.14173,-4.78993 -6.08657,-9.27336 -6.54421,-9.96317 -0.7573,-1.14169 -1.85128,-0.24803 -12.19498,9.9623 l -11.36304,11.2165 6.82967,5.36087 c 3.75631,2.94849 7.10103,5.3697 7.43275,5.38049 0.33171,0.0109 8.73302,-1.83203 18.66968,-4.09514 9.93658,-2.26312 18.16947,-4.05384 18.29514,-3.97937 0.12575,0.0744 4.22578,8.25017 9.11107,18.16823 l 8.88247,18.03284 11.9211,10.31458 c 6.55666,5.67301 16.62272,14.20246 22.36912,18.95429 l 10.44794,8.63972 9.93988,3.55509 c 11.75572,4.20449 15.04907,5.83124 14.41874,7.12194 -0.24811,0.50815 -0.71124,2.68207 -1.0291,4.83099 l -0.578,3.90707 9.44993,2.35289 c 5.1975,1.29405 9.84183,2.37682 10.3208,2.40611 0.47897,0.0294 2.38521,-1.63015 4.23615,-3.68768 z m -365.74139,-3.82224 c 3.41144,-0.25307 7.99979,-1.64665 23.07792,-7.00947 49.43461,-17.58215 80.21587,-31.66553 80.21587,-36.70117 0,-0.83686 2.62032,-2.14345 10.8717,-5.42092 5.97944,-2.37503 11.05875,-4.68694 11.28733,-5.13758 0.22859,-0.45065 5.13004,-11.40103 10.89209,-24.33421 l 10.47649,-23.51488 2.65566,-24.18958 c 1.46061,-13.30427 3.16301,-35.03059 3.78311,-48.28072 l 1.12744,-24.09114 -2.25753,-7.73045 -2.25751,-7.73046 -15.02969,14.45399 c -14.18143,13.63823 -49.88385,43.94917 -50.49261,42.86766 -0.25249,-0.44858 13.68218,-24.54938 21.39231,-36.99927 3.36803,-5.43847 9.23287,-19.75147 8.69518,-21.2203 -0.1648,-0.45013 -2.62034,0.44517 -6.78965,2.47555 -13.7923,6.7166 -30.1563,12.1741 -44.04871,14.69051 -6.98921,1.266 -9.12066,1.40971 -21.26615,1.43384 -15.69291,0.0311 -20.36126,-0.55145 -32.73202,-4.08514 -23.9033,-6.82792 -47.64451,-23.00216 -63.61689,-43.34048 -2.32979,-2.96663 -4.43194,-5.3927 -4.67142,-5.39127 -0.23949,0.001 -3.91278,9.22634 -8.16285,20.49981 -4.25007,11.27347 -8.01407,20.81426 -8.36442,21.20177 -0.35037,0.38749 -0.9124,-2.86157 -1.24897,-7.22014 -0.38094,-4.93325 -1.72159,-11.91554 -3.55155,-18.49701 -1.61679,-5.81479 -6.5226,-26.58557 -10.9018,-46.15728 l -7.96219,-35.58495 -6.56464,-13.15095 c -4.61535,-9.24599 -12.25436,-22.10944 -25.7262,-43.3208 -10.53885,-16.59342 -19.41749,-30.57456 -19.73029,-31.0692 -0.49653,-0.78524 -1.30131,-0.60832 -6.34206,1.39424 l -5.77336,2.29361 -11.62668,0.62736 c -11.58159,0.62493 -11.65437,0.63703 -18.7543,3.11833 l -7.12759,2.49098 -10.12081,0 -10.12081,0 -53.91304,18.10165 c -48.62916,16.32754 -54.28794,18.36197 -57.73832,20.75788 l -3.82527,2.65623 -12.42314,42.80509 c -6.83275,23.54278 -13.8777,47.5046 -15.65548,53.24848 -1.77778,5.74387 -3.10945,10.4434 -2.95928,10.4434 0.15018,0 2.5203,-0.85131 5.26693,-1.8918 7.29693,-2.76425 27.03945,-8.47047 38.71997,-11.19132 18.85233,-4.39143 38.67154,-7.0301 52.80341,-7.0301 12.54464,0 25.02239,2.27091 31.71379,5.77182 l 2.86793,1.50049 -5.22519,-0.41289 c -2.87385,-0.22708 -11.88731,-0.39353 -20.02989,-0.36987 -12.88057,0.0373 -16.14574,0.22658 -25.12295,1.45548 -18.75829,2.56785 -37.90384,7.02248 -57.60922,13.40401 -8.56133,2.77257 -22.06976,7.99574 -23.71484,9.16959 -0.79239,0.56541 -0.86792,8.62368 -0.32212,34.36839 l 0.71296,33.6298 2.88688,2.70076 c 1.5878,1.48542 10.91077,11.03237 20.71773,21.21545 l 17.83084,18.51469 -0.96846,3.08392 c -0.92292,2.93894 -1.53961,3.8966 -2.20385,3.42239 -0.16555,-0.11819 -3.83523,-3.28275 -8.15485,-7.03237 -4.31962,-3.74961 -8.10307,-6.6699 -8.40765,-6.48952 -1.0989,0.65076 -0.39213,6.12996 1.03479,8.02221 0.80269,1.06446 6.55399,6.08446 12.78069,11.15558 l 11.32124,9.22023 4.12009,-1.23162 4.12007,-1.23162 2.13507,1.93769 c 1.23372,1.11967 5.68004,8.90475 10.5322,18.44086 4.61844,9.07674 8.66167,16.98038 8.98499,17.56364 0.32331,0.58326 6.54773,6.507 13.83203,13.16388 l 13.24418,12.10339 25.50931,9.57905 c 14.03012,5.26848 25.946,9.7244 26.47974,9.90196 0.53373,0.17761 21.10792,3.8213 45.7204,8.09717 60.42588,10.49756 82.53726,13.05277 126.61129,14.63124 6.68388,0.2394 33.51591,-0.14198 39.09262,-0.55559 z m -53.3675,-59.49057 c -16.44574,-4.04905 -26.49131,-8.64823 -31.11583,-14.24576 -2.99989,-3.63111 -3.3527,-8.71585 -0.89748,-12.93478 2.00982,-3.45355 9.69134,-10.44887 11.47386,-10.44887 0.74895,0 7.35875,0.79561 14.68845,1.76802 11.72349,1.55533 14.15057,2.06423 20.17503,4.23022 8.5641,3.07906 18.52493,8.62964 21.21889,11.82403 5.17595,6.13742 2.06924,12.15406 -8.74439,16.93494 -5.14704,2.27559 -14.38183,4.96719 -16.87798,4.9193 -0.95795,-0.0183 -5.42219,-0.93957 -9.92055,-2.0471 z m 10.47926,-3.01231 c 9.16078,-1.86646 18.60778,-5.39861 20.73525,-7.75273 1.11588,-1.23475 -1.74258,-6.80766 -5.09975,-9.94259 -2.82994,-2.64259 -10.34051,-6.42951 -13.75943,-6.93768 -3.85683,-0.57324 -15.3364,0.19469 -20.65184,1.38154 -9.52091,2.12585 -16.48685,8.22709 -14.94607,13.09081 1.1635,3.67279 10.48906,7.93081 22.25269,10.16051 6.07904,1.15223 5.81465,1.15222 11.46915,1.4e-4 z m -225.98243,-70.2177 c -7.57541,-0.7076 -21.3125,-3.6465 -28.62362,-6.12372 -14.78631,-5.01003 -29.46372,-12.93938 -41.12062,-22.21505 -9.51499,-7.57129 -12.68588,-10.96949 -12.66767,-13.57577 0.0361,-5.16649 5.39905,-15.62448 12.13943,-23.67242 18.41478,-21.98702 46.08565,-33.41829 80.88689,-33.41565 12.6161,0.001 21.55722,0.99245 38.09572,4.22449 l 14.00583,2.73708 5.38958,4.23081 c 10.42498,8.18357 17.35527,16.35248 21.26888,25.07013 1.61422,3.59573 1.88827,5.55825 1.84979,13.24627 -0.0401,8.01676 -0.29457,9.5726 -2.27724,13.92455 -3.16243,6.94159 -8.24055,13.57478 -14.98601,19.5752 -5.60873,4.98925 -6.11633,5.28101 -13.91792,8.00008 -9.25645,3.22612 -18.54517,5.54384 -28.21426,7.04003 -7.72166,1.19484 -24.02016,1.68333 -31.82878,0.95397 z m 37.75233,-3.1599 c 6.56108,-1.25111 15.37213,-3.71899 23.08109,-6.46478 11.17245,-3.97942 22.95962,-16.67675 27.46794,-29.5889 2.36048,-6.76061 2.02009,-16.97684 -0.77451,-23.24529 -3.72543,-8.35638 -10.93065,-16.81311 -20.88752,-24.51558 -5.35178,-4.14006 -6.96045,-4.65657 -19.30749,-6.19921 -5.46268,-0.68251 -11.05348,-0.91432 -21.33619,-0.88469 -12.20957,0.0352 -15.00897,0.21036 -22.62204,1.41545 -26.76381,4.23657 -50.63205,15.83986 -65.08333,31.63959 l -3.38821,3.70436 1.84498,5.83653 c 8.85014,27.99708 36.87535,43.70382 78.03621,43.73545 l 8.81752,0.007 0.54429,1.61165 c 0.29935,0.88639 0.54428,2.37021 0.54428,3.29737 l 0,1.68576 3.70118,-0.47755 c 2.03565,-0.26266 6.24846,-0.96328 9.3618,-1.55693 z m -4.99645,-9.98267 c -20.35973,-2.61948 -35.81409,-14.46886 -41.55732,-31.8634 -1.86365,-5.6445 -1.64309,-6.0868 2.73526,-5.48498 4.97157,0.68336 12.54417,0.57359 17.15799,-0.24871 9.49738,-1.69267 14.11458,-5.69484 13.39937,-11.61453 -0.70598,-5.84309 -5.13817,-10.31282 -12.42937,-12.53461 -4.81452,-1.4671 -14.4266,-1.85696 -17.3941,-0.70551 -1.80304,0.69964 -2.20035,0.72168 -2.20035,0.12208 0,-1.56162 15.46322,-6.37 25.21582,-7.841 8.24403,-1.24346 19.8557,-0.84656 26.16521,0.89434 12.56697,3.46746 21.33749,11.25029 26.95514,23.91958 2.82274,6.36605 6.31814,21.7058 5.63628,24.73507 -1.59357,7.07954 -10.35135,14.5442 -23.16883,19.74784 -3.57517,1.45145 -4.75179,1.64965 -9.57951,1.61369 -3.02704,-0.0226 -7.94805,-0.35549 -10.93559,-0.73986 z m 14.65475,-4.92204 c 6.43541,-2.44554 15.91671,-8.67527 18.90825,-12.42375 5.61491,-7.03568 5.75541,-13.08974 0.52746,-22.72983 -4.62895,-8.53556 -9.10841,-13.36835 -16.42375,-17.71918 -9.49674,-5.64825 -19.85788,-7.92605 -33.04983,-7.26567 -6.07552,0.30413 -12.52316,1.2688 -8.97742,1.34316 2.52636,0.053 7.81013,1.87503 10.80651,3.72649 4.13922,2.55765 6.57526,6.26764 7.05627,10.74647 0.41398,3.8546 0.43198,3.87855 5.22421,6.95245 6.57414,4.21688 9.22354,7.75958 9.26381,12.38719 0.0417,4.78552 -1.49229,6.65054 -5.64032,6.85777 -6.17467,0.30848 -12.012,-3.3722 -16.19234,-10.20998 -1.30059,-2.12736 -2.39507,-3.90692 -2.4322,-3.95457 -0.0371,-0.0476 -2.20977,0.24244 -4.82814,0.64465 -2.61836,0.40222 -6.64216,0.73131 -8.94179,0.73131 -4.92504,0 -4.91955,-0.46598 -0.0969,8.23251 6.99982,12.6254 18.37186,21.00553 31.90352,23.5099 5.70715,1.05625 8.38487,0.8841 12.89266,-0.82892 z m 113.74103,7.49804 c -10.12751,-7.64142 -14.08744,-16.38473 -10.5845,-23.3701 1.52668,-3.04439 6.90253,-7.20294 12.24598,-9.47301 3.44891,-1.4652 3.68384,-1.49194 6.65303,-0.75726 4.9159,1.21637 9.94075,4.2413 11.47505,6.90791 3.09954,5.38702 0.82402,13.80377 -5.96428,22.06084 -4.24383,5.16206 -6.97617,7.47799 -8.82251,7.47799 -0.67669,0 -2.92794,-1.28087 -5.00277,-2.84637 z m 286.84588,96.32926 44.91739,-12.21793 -4.63883,-6.9815 c -2.55129,-3.83982 -7.28383,-10.98481 -10.51656,-15.87773 -3.23284,-4.89293 -6.11888,-8.89623 -6.4135,-8.89623 -0.54855,0 -70.60658,55.47119 -71.21501,56.38727 -0.49524,0.74564 -0.86552,0.84167 47.86651,-12.41388 z M 690.0084,676.17694 c 7.12354,-1.25786 21.60468,-5.1329 25.4429,-6.80833 1.63249,-0.71257 1.64179,-0.80811 0.21772,-2.23576 -0.81819,-0.82024 -1.48763,-1.60359 -1.48763,-1.74076 0,-0.13719 7.4459,-3.78865 16.54644,-8.11438 l 16.54644,-7.86494 0.0722,-2.37841 c 0.0397,-1.30812 0.38943,-7.48407 0.77717,-13.72433 l 0.70497,-11.34592 -17.87229,-21.72842 -17.8723,-21.72844 -3.92718,-0.31876 c -6.3855,-0.51831 -38.76362,-0.36374 -47.91479,0.22875 -31.78627,2.05796 -56.24634,8.23567 -72.34398,18.27142 -9.992,6.2293 -17.39231,15.04675 -19.13164,22.79527 -0.61051,2.7198 -0.40293,3.37615 2.25243,7.12169 7.03631,9.92514 18.87647,21.52383 30.18628,29.57067 15.3786,10.94174 32.65934,17.99278 50.76778,20.71467 9.84381,1.47964 26.42252,1.16 37.0355,-0.71402 z m -22.02586,-5.99392 c -26.45649,-2.47181 -45.03069,-16.79537 -51.7484,-39.90595 -1.38554,-4.76657 -1.8132,-12.39367 -0.6782,-12.09493 0.35923,0.0945 4.03657,1.18278 8.17187,2.4183 5.85905,1.75053 8.79017,2.30684 13.27871,2.52021 6.6365,0.31547 12.90369,-0.79226 14.85501,-2.62561 1.84933,-1.73754 3.35541,-9.38221 2.96327,-15.04099 -0.44285,-6.39009 -2.44273,-8.93347 -8.35786,-10.6292 -3.44104,-0.98648 -4.31013,-1.0371 -8.74642,-0.50949 -5.46169,0.64956 -14.05586,2.88376 -20.50177,5.32978 -3.34576,1.26961 -4.36622,1.45524 -4.94599,0.89973 -0.99949,-0.95771 1.1266,-2.60794 9.30737,-7.22418 15.21489,-8.58548 27.31849,-11.67294 44.06085,-11.2393 7.7008,0.19946 8.89206,0.38197 15.88205,2.43315 13.32705,3.91075 26.54501,12.97724 37.12956,25.46798 16.14553,19.05319 14.55834,35.51406 -4.7854,49.62943 -8.05633,5.87881 -14.91643,8.98771 -21.71544,9.84111 -7.47849,0.9387 -18.40348,1.26865 -24.16921,0.72996 z m 22.39472,-5.4908 c 3.49765,-0.98068 14.76172,-7.4477 18.2805,-10.49537 7.6339,-6.61186 10.81307,-12.49151 10.81661,-20.00457 0.006,-11.27087 -8.3719,-23.06687 -25.36242,-35.71294 -3.25357,-2.42163 -7.83326,-5.46523 -10.17709,-6.76356 -3.67859,-2.03768 -5.03809,-2.44066 -9.93902,-2.94608 -11.28218,-1.16349 -22.6381,-0.33263 -31.33951,2.29298 l -4.67561,1.41083 4.88154,0.58364 c 6.27097,0.74978 9.00137,1.83864 11.40069,4.54655 2.69798,3.04497 3.24878,12.32466 1.14268,19.25158 l -1.48526,4.88501 -4.05093,1.20033 c -2.22802,0.6602 -7.96984,1.96015 -12.75959,2.88879 -4.78975,0.92866 -8.97578,1.7772 -9.30227,1.88565 -1.43541,0.47678 5.09376,12.18472 10.26536,18.40758 9.21196,11.08449 21.18318,17.6701 35.27214,19.40391 4.83494,0.59499 13.43727,0.1736 17.03218,-0.83433 z m -22.38388,-27.92405 c -7.57011,-4.6099 -9.74339,-9.78712 -6.02031,-14.34163 2.66283,-3.2575 3.56941,-3.55587 8.38031,-2.75821 7.70836,1.27809 12.47688,4.90124 12.47688,9.48 0,4.14651 -5.18451,10.60825 -8.51141,10.60825 -0.77995,0 -3.62641,-1.34479 -6.32547,-2.98841 z m -68.29053,-53.20823 c 21.90082,-8.46666 49.98564,-12.94119 86.39315,-13.76432 8.26233,-0.18681 15.02242,-0.42553 15.02242,-0.53051 0,-0.10492 -5.15919,-5.11613 -11.46487,-11.1359 -6.30567,-6.01978 -11.9719,-11.52524 -12.59161,-12.23436 -0.61971,-0.70913 -5.35573,-5.17239 -10.52448,-9.91837 -28.29896,-25.9843 -56.66245,-48.02084 -70.52186,-54.79078 -3.20975,-1.56787 -6.09404,-2.85067 -6.40954,-2.85067 -1.06136,0 -1.70004,7.80566 -1.70485,20.83569 -0.002,7.11931 -0.58778,20.58496 -1.30034,29.92365 -0.71255,9.3387 -1.14639,17.06779 -0.96406,17.17576 0.18231,0.10796 16.0889,-2.48514 35.34798,-5.76245 19.25906,-3.27732 35.52785,-5.95875 36.15285,-5.95875 1.11097,0 4.79186,3.19189 4.79186,4.15526 0,0.27067 -3.69829,0.48625 -8.34171,0.48625 l -8.34171,0 -28.45234,6.7821 c -15.64877,3.73015 -28.70358,6.9212 -29.01066,7.0912 -0.30708,0.17001 -1.39135,7.85157 -2.4095,17.07013 -1.01814,9.21856 -2.08751,17.9214 -2.37633,19.33964 l -0.52515,2.57862 5.1831,-2.91921 c 2.85069,-1.60556 8.27214,-4.11341 12.04765,-5.57298 z M 331.65886,501.86847 c 16.64171,-4.64279 39.90454,-11.15848 51.69514,-14.4793 l 21.43747,-6.03787 3.12246,-9.63078 c 1.71735,-5.29694 4.37116,-13.51806 5.89738,-18.26916 2.65452,-8.26362 4.29702,-10.85001 4.25765,-6.70441 -0.01,1.06368 -0.59199,6.80754 -1.29309,12.76416 -0.70109,5.95661 -1.26898,11.99057 -1.26198,13.40882 0.014,2.83992 -1.246,4.48186 17.97643,-23.42503 3.20845,-4.65797 5.95229,-8.25515 6.09744,-7.99372 0.14515,0.26143 -1.81831,7.49561 -4.36323,16.07596 -2.54493,8.58036 -4.48942,15.60065 -4.32112,15.60065 0.85725,0 39.74004,-6.71267 40.09277,-6.92155 0.22699,-0.13443 -3.80597,-4.37594 -8.96212,-9.42559 -19.42078,-19.01963 -38.14332,-37.05382 -39.13594,-37.6971 -0.80642,-0.52259 -3.356,3.32576 -11.7877,17.79246 l -10.75873,18.45931 -0.82992,12.1195 c -0.45647,6.66573 -0.91322,12.181 -1.01499,12.25614 -0.10181,0.0752 -16.99077,-2.86863 -37.53109,-6.54173 -20.54031,-3.6731 -37.48392,-6.5967 -37.65245,-6.49691 -0.45579,0.26993 -4.46621,9.75032 -4.19303,9.9121 0.12902,0.0764 9.01413,-0.193 19.7447,-0.59866 10.73055,-0.40568 19.67558,-0.63959 19.87783,-0.51982 0.36281,0.21486 -31.1781,9.3797 -37.58527,10.92114 -1.81604,0.4369 -3.12299,0.90031 -2.90435,1.02978 0.40994,0.24277 26.81078,-1.20716 31.46131,-1.72785 5.4895,-0.61463 0.3882,0.88701 -19.59446,5.76789 -11.25594,2.74932 -20.73576,5.14575 -21.06629,5.3254 -0.78306,0.42562 -8.59411,13.47761 -8.06577,13.47761 0.22179,0 14.01923,-3.79866 30.66095,-8.44144 z"
       id="path3347"
       inkscape:connector-curvature="0" />
  </g>
</svg>
